<?xml version="1.0" standalone="no"?>
<!DOCTYPE svg PUBLIC "-//W3C//DTD SVG 20010904//EN"
 "http://www.w3.org/TR/2001/REC-SVG-20010904/DTD/svg10.dtd">
<svg version="1.0" xmlns="http://www.w3.org/2000/svg"
 width="669.000000pt" height="669.000000pt" viewBox="0 0 669.000000 669.000000"
 preserveAspectRatio="xMidYMid meet">
<metadata>
Created by potrace 1.14, written by Peter Selinger 2001-2017
</metadata>
<g transform="translate(0.000000,669.000000) scale(0.100000,-0.100000)"
fill="#000000" stroke="none">
<path d="M4459 6286 c-2 -2 -29 -6 -59 -10 -236 -26 -546 -186 -735 -381 -55
-56 -145 -170 -145 -184 0 -6 -4 -11 -8 -11 -5 0 -15 -12 -23 -27 -7 -16 -21
-39 -31 -52 -10 -13 -15 -27 -12 -32 3 -5 1 -9 -3 -9 -5 0 -17 -17 -26 -37
-29 -67 -47 -113 -47 -118 0 -3 -7 -19 -15 -35 -8 -16 -15 -33 -15 -37 0 -5
-4 -21 -10 -38 -30 -97 -51 -344 -33 -392 4 -11 23 -14 77 -12 208 7 426 91
601 232 53 43 205 193 205 202 0 7 19 31 43 53 9 9 17 20 17 24 0 6 37 66 57
93 27 35 138 295 126 295 -3 0 -1 6 5 13 5 6 13 28 16 47 4 19 8 40 10 45 4
16 19 108 20 130 1 11 4 25 8 30 3 6 2 19 -2 30 -4 11 -4 29 -1 40 4 11 6 31
4 45 -2 14 -4 39 -6 57 -2 31 -9 47 -18 39z"/>
<path d="M4358 4854 c-3 -2 -33 -6 -69 -8 -35 -3 -74 -7 -85 -10 -12 -2 -39
-7 -60 -11 -45 -8 -69 -13 -69 -15 0 -1 -9 -3 -19 -5 -36 -7 -241 -78 -253
-88 -7 -5 -13 -6 -13 -3 0 4 -10 1 -22 -6 -13 -7 -25 -13 -28 -13 -10 -1 -106
-40 -130 -52 -14 -7 -31 -13 -38 -13 -7 0 -20 -4 -30 -10 -36 -21 -159 -47
-212 -45 -30 2 -75 8 -100 16 -25 7 -48 13 -52 15 -5 1 -10 3 -13 4 -3 1 -9 4
-15 5 -5 1 -11 3 -12 5 -2 1 -10 3 -18 5 -8 2 -28 9 -45 16 -16 6 -36 13 -44
15 -7 1 -18 7 -24 13 -6 6 -17 11 -24 11 -7 0 -35 9 -61 21 -26 12 -56 25 -67
29 -19 8 -118 41 -140 47 -5 1 -45 11 -88 23 -43 11 -97 22 -120 24 -23 2 -44
5 -47 6 -10 3 -165 0 -200 -5 -19 -2 -55 -7 -80 -10 -25 -3 -63 -11 -85 -17
-22 -5 -47 -11 -55 -13 -40 -8 -154 -52 -235 -91 -106 -50 -131 -65 -208 -121
-31 -24 -60 -43 -63 -43 -10 0 -244 -237 -244 -246 0 -5 -10 -20 -23 -34 -12
-14 -45 -61 -71 -105 -27 -44 -56 -91 -65 -105 -8 -14 -16 -29 -17 -35 -1 -5
-14 -35 -28 -65 -25 -50 -61 -142 -71 -180 -3 -8 -14 -49 -25 -90 -12 -41 -23
-84 -25 -95 -2 -11 -7 -33 -11 -50 -3 -16 -8 -46 -9 -65 -2 -19 -4 -35 -5 -35
-19 0 -30 -467 -15 -620 4 -44 8 -94 10 -111 1 -17 4 -35 6 -40 3 -5 5 -21 4
-36 0 -16 2 -28 5 -28 3 0 6 -10 6 -22 3 -52 18 -127 50 -256 19 -75 37 -150
40 -167 3 -16 10 -34 15 -39 5 -6 9 -22 9 -36 0 -14 4 -30 8 -36 5 -5 14 -29
21 -54 6 -25 17 -56 23 -70 13 -31 23 -55 38 -100 7 -19 23 -59 36 -88 13 -29
24 -55 24 -58 0 -16 166 -353 179 -364 4 -3 18 -26 31 -52 14 -27 28 -48 32
-48 5 0 8 -5 8 -11 0 -12 80 -133 92 -137 4 -2 8 -9 8 -16 0 -6 13 -27 30 -46
16 -19 29 -38 30 -42 0 -4 6 -16 14 -25 8 -10 50 -63 92 -118 221 -285 413
-429 619 -463 52 -9 230 -2 230 8 0 1 10 3 23 6 47 9 57 11 72 17 8 3 49 18
90 33 41 15 98 37 125 50 28 12 52 21 55 21 3 0 16 6 30 13 14 8 27 15 30 15
3 1 37 11 75 23 117 37 220 51 350 47 109 -3 163 -7 205 -18 8 -2 33 -7 55
-12 22 -4 110 -37 195 -73 258 -107 321 -123 480 -125 96 -1 129 4 215 31 167
54 343 200 514 427 34 44 64 85 69 90 4 6 32 46 62 90 29 44 56 82 60 85 3 3
32 50 65 105 33 55 62 102 66 105 9 8 145 290 174 360 14 36 30 74 35 85 4 11
22 59 39 107 l30 87 -62 31 c-62 32 -158 89 -167 101 -3 3 -12 10 -21 15 -29
16 -100 77 -158 135 -89 88 -126 136 -208 265 -66 103 -132 294 -157 449 -14
89 -16 370 -2 425 3 14 11 50 17 80 6 30 18 75 26 100 20 64 20 64 22 73 0 4
25 54 55 112 63 121 115 200 169 257 9 10 15 18 13 18 -5 0 98 104 146 147 20
17 64 52 99 78 35 26 66 49 68 51 8 8 -111 152 -182 219 -110 104 -207 171
-337 233 -80 37 -214 86 -270 98 -14 2 -45 9 -70 14 -48 11 -117 20 -191 24
-26 2 -52 6 -58 10 -6 4 -11 3 -11 -3 0 -6 -11 -6 -29 -1 -16 4 -31 6 -33 4z"/>
</g>
</svg>
